<svg viewBox="0 0 620 121" fill="none" xmlns="http://www.w3.org/2000/svg">
<path d="M1.03502 20.4469C1.39862 13.1383 6.74536 7.02434 13.9605 5.80434C34.2912 2.36665 55.8937 -6.78956e-07 82.1297 0C109.854 7.17463e-07 121.564 1.45934 149.797 5.96817C157.231 7.15545 162.845 13.3897 163.17 20.9112C164.456 50.6189 164.115 71.8365 163.049 101.827C162.768 109.713 156.74 116.228 148.892 117.051C98.4345 122.342 65.2273 122.296 15.2226 117.037C7.43766 116.219 1.43157 109.798 1.08909 101.978C-0.217255 72.147 -0.481833 50.9362 1.03502 20.4469Z" fill="white"/>
<path d="M569 42V11H579.41C582.865 11 585.461 11.6955 587.196 13.0865C588.945 14.4776 589.82 16.5357 589.82 19.261C589.82 20.7088 589.397 21.9934 588.551 23.1147C587.706 24.2218 586.554 25.0806 585.096 25.6909C586.816 26.1593 588.172 27.0536 589.164 28.3736C590.17 29.6795 590.673 31.2408 590.673 33.0577C590.673 35.8397 589.747 38.0256 587.895 39.6154C586.044 41.2051 583.427 42 580.044 42H569ZM573.199 27.5007V38.6573H580.132C582.085 38.6573 583.623 38.1676 584.746 37.1882C585.883 36.1946 586.452 34.832 586.452 33.1003C586.452 29.3672 584.367 27.5007 580.197 27.5007H573.199ZM573.199 24.2218H579.541C581.378 24.2218 582.843 23.7747 583.937 22.8805C585.045 21.9863 585.599 20.7727 585.599 19.2397C585.599 17.5364 585.089 16.3015 584.068 15.535C583.048 14.7543 581.495 14.364 579.41 14.364H573.199V24.2218Z" fill="white" fill-opacity="0.78"/>
<path d="M608.584 29.4595H601.105V42H596.884V11H607.425C611.012 11 613.767 11.7949 615.692 13.3846C617.631 14.9744 618.6 17.288 618.6 20.3256C618.6 22.256 618.061 23.938 616.982 25.3716C615.918 26.8052 614.431 27.8768 612.521 28.5865L620 41.7445V42H615.495L608.584 29.4595ZM601.105 26.1168H607.556C609.641 26.1168 611.296 25.5916 612.521 24.5412C613.76 23.4908 614.38 22.0856 614.38 20.3256C614.38 18.4093 613.789 16.9402 612.608 15.9183C611.442 14.8963 609.75 14.3782 607.534 14.364H601.105V26.1168Z" fill="white" fill-opacity="0.78"/>
<circle cx="40.5" cy="36.4523" r="15.5" fill="#563708"/>
<path d="M47.9032 22.3763L125.471 54.5646L104.758 94.5799L31.5894 48.7925L47.9032 22.3763Z" fill="#563708"/>
<circle cx="116.5" cy="75.4523" r="22.5" fill="#A8A8A8"/>
<circle cx="116.5" cy="75.4523" r="19.5" fill="#272727"/>
<path d="M230.054 90.3226C230.054 86.2802 229.146 83.1889 227.329 81.0488C225.513 78.8612 222.244 76.5784 217.521 74.2005C212.798 71.7751 209.06 69.3972 206.305 67.0668C198.797 60.6941 195.043 52.1099 195.043 41.3143C195.043 35.7024 196.042 30.7089 198.04 26.3335C200.069 21.9107 202.96 18.4627 206.714 15.9897C210.498 13.5167 214.736 12.2802 219.428 12.2802C224.151 12.2802 228.359 13.6356 232.052 16.3464C235.745 19.0096 238.606 22.7905 240.634 27.6889C242.693 32.5874 243.722 38.1517 243.722 44.3817H230.099C230.099 39.626 229.146 35.9402 227.239 33.3246C225.331 30.6613 222.652 29.3297 219.201 29.3297C215.871 29.3297 213.283 30.4473 211.436 32.6825C209.59 34.8702 208.666 37.7712 208.666 41.3856C208.666 44.7622 209.741 47.5919 211.89 49.8747C214.07 52.1575 217.264 54.2976 221.472 56.295C229.221 59.9569 234.867 64.4987 238.409 69.9203C241.951 75.3419 243.722 82.0951 243.722 90.1799C243.722 99.1684 241.558 106.231 237.229 111.367C232.9 116.456 227.072 119 219.746 119C214.66 119 210.028 117.549 205.851 114.648C201.673 111.7 198.479 107.681 196.269 102.593C194.09 97.5039 193 91.6067 193 84.901H206.668C206.668 96.3625 211.027 102.093 219.746 102.093C222.985 102.093 225.513 101.071 227.329 99.0257C229.146 96.9332 230.054 94.0321 230.054 90.3226Z" fill="white"/>
<path d="M274.737 119C267.532 119 261.659 115.528 257.118 108.585C252.607 101.641 250.352 92.3914 250.352 80.8348V78.8374C250.352 71.0855 251.306 64.1658 253.213 58.0784C255.12 51.9434 257.814 47.2352 261.296 43.9537C264.807 40.6247 268.803 38.9602 273.284 38.9602C280.004 38.9602 285.287 42.2892 289.132 48.9473C293.006 55.6054 294.944 65.0456 294.944 77.268V85.6857H263.657C264.081 90.7269 265.352 94.7693 267.471 97.813C269.621 100.857 272.33 102.379 275.6 102.379C280.655 102.379 284.606 99.5013 287.451 93.7468L293.899 105.089C291.932 109.465 289.268 112.889 285.907 115.362C282.547 117.787 278.824 119 274.737 119ZM273.238 55.653C270.635 55.653 268.516 57.0321 266.881 59.7905C265.276 62.5488 264.247 66.4961 263.793 71.6324H282.048V69.9916C281.987 65.4261 281.2 61.9068 279.686 59.4338C278.173 56.9132 276.023 55.653 273.238 55.653Z" fill="white"/>
<path d="M331.862 109.726C328.622 115.909 324.142 119 318.421 119C313.153 119 309.127 116.622 306.342 111.866C303.587 107.111 302.179 100.143 302.119 90.9647V40.3869H315.242V90.2513C315.242 98.2886 317.573 102.307 322.235 102.307C326.685 102.307 329.743 99.8818 331.408 95.0308V40.3869H344.576V117.573H332.225L331.862 109.726Z" fill="white"/>
<path d="M405.107 31.0418H384.854V117.573H371.232V31.0418H351.251V13.7069H405.107V31.0418Z" fill="white"/>
<path d="M438.483 109.726C435.243 115.909 430.763 119 425.042 119C419.774 119 415.748 116.622 412.963 111.866C410.208 107.111 408.8 100.143 408.74 90.9647V40.3869H421.863V90.2513C421.863 98.2886 424.194 102.307 428.856 102.307C433.306 102.307 436.364 99.8818 438.029 95.0308V40.3869H451.197V117.573H438.846L438.483 109.726Z" fill="white"/>
<path d="M505.371 79.6934C505.371 92.0585 503.69 101.713 500.33 108.656C496.97 115.552 492.278 119 486.253 119C480.925 119 476.672 115.79 473.493 109.37L472.903 117.573H461.097V8H474.22V47.3066C477.247 41.7423 481.228 38.9602 486.162 38.9602C492.157 38.9602 496.849 42.4319 500.239 49.3753C503.66 56.2712 505.371 65.9968 505.371 78.5521V79.6934ZM492.247 78.1954C492.247 70.3959 491.46 64.7127 489.886 61.1459C488.312 57.5315 485.966 55.7243 482.848 55.7243C478.67 55.7243 475.794 58.4113 474.22 63.7853V94.2461C475.824 99.6677 478.73 102.379 482.938 102.379C487.177 102.379 489.962 99.097 491.294 92.5341C491.929 89.3952 492.247 84.6157 492.247 78.1954Z" fill="white"/>
<path d="M511.455 78.2667C511.455 70.6099 512.394 63.7853 514.271 57.7931C516.148 51.8008 518.842 47.1639 522.354 43.8824C525.896 40.6009 529.998 38.9602 534.66 38.9602C541.289 38.9602 546.693 42.1465 550.871 48.5193C555.079 54.892 557.425 63.5476 557.909 74.4859L558 79.7648C558 91.6067 555.896 101.118 551.688 108.299C547.48 115.433 541.834 119 534.75 119C527.667 119 522.006 115.433 517.767 108.299C513.559 101.166 511.455 91.464 511.455 79.1941V78.2667ZM524.579 79.7648C524.579 87.0887 525.457 92.7005 527.212 96.6003C528.968 100.452 531.481 102.379 534.75 102.379C537.929 102.379 540.411 100.476 542.198 96.6716C543.984 92.8194 544.877 86.6844 544.877 78.2667C544.877 71.0855 543.984 65.5212 542.198 61.5739C540.411 57.6266 537.899 55.653 534.66 55.653C531.451 55.653 528.968 57.6266 527.212 61.5739C525.457 65.4737 524.579 71.5373 524.579 79.7648Z" fill="white"/>
</svg>
